<svg xmlns="http://www.w3.org/2000/svg" width="253.492" height="241.791" viewBox="0 0 253.492 241.791"><path d="M76.775,241.159c0,2.618,6.437,22.855,10.473,32.893,7.528,18.6,20.784,42.385,30.767,54.931,1.472,1.854,3.164,4.036,3.763,4.854,6.164,8.564,22.256,25.148,31.366,32.293,3.164,2.455,6.055,4.8,6.492,5.129,6.327,5.235,22.964,14.019,31.419,16.637,23.565,7.309,46.53.6,59.405-17.456,6.981-9.766,12.218-26.131,13.8-43.094.492-5.4.492-5.4-2.945,1.854-9.255,19.537-20.183,33.166-37.366,36.712a72.7,72.7,0,0,1-21.764.055c-8.947-1.636-20.183-5.947-29.567-11.238-33.493-18.984-66.792-57.921-91.8-106.589-4.038-7.856-4.038-7.856-4.038-6.982Zm0,0" transform="translate(-76.775 -193.547)" fill="#bf1e2e"/><path d="M76.775,323.109c0,2.018,6.273,22.148,9.22,29.676a283.805,283.805,0,0,0,17.782,36.548c12.164,20.565,28.039,40.147,43.912,54.057,13.746,12,29.729,21.875,42.495,26.13,13.854,4.637,29.292,4.036,41.347-1.636,14.839-6.929,24.057-19.2,29.13-38.73,1.581-6.111,3.763-18.71,3.763-21.875,0-3.056-.052-3.112-2.892,2.945-8.137,17.353-17.4,31.04-32.184,36-15.928,5.346-35.293,2.129-56.021-9.382-24.82-13.746-49.966-38.73-71.841-71.568a341.5,341.5,0,0,1-20.62-35.129c-4.091-7.8-4.091-7.8-4.091-7.038Zm0,0" transform="translate(-76.775 -230.823)" fill="#bf1e2e"/><path d="M383.071,387.481c0-2.618-6.437-22.855-10.473-32.893-7.528-18.6-20.784-42.385-30.767-54.931-1.472-1.854-3.164-4.036-3.763-4.854-6.164-8.564-22.256-25.148-31.366-32.293-3.164-2.455-6.056-4.8-6.492-5.129-6.327-5.235-22.964-14.019-31.419-16.638-23.565-7.308-46.53-.6-59.405,17.456-6.981,9.766-12.218,26.131-13.8,43.094-.492,5.4-.492,5.4,2.945-1.854,9.255-19.537,20.183-33.166,37.366-36.712a72.7,72.7,0,0,1,21.764-.055c8.947,1.637,20.183,5.947,29.567,11.238,33.493,18.984,66.792,57.921,91.8,106.589,4.038,7.856,4.038,7.856,4.038,6.982Zm0,0" transform="translate(-130.67 -192.211)" fill="#0f75bc"/><path d="M385.128,303.7c0-2.018-6.273-22.148-9.22-29.676a283.8,283.8,0,0,0-17.782-36.548c-12.164-20.565-28.039-40.147-43.912-54.057-13.746-12-29.729-21.875-42.495-26.13-13.854-4.637-29.292-4.036-41.347,1.636-14.839,6.929-24.057,19.2-29.13,38.73-1.581,6.111-3.763,18.71-3.763,21.875,0,3.056.052,3.112,2.892-2.945,8.137-17.354,17.4-31.04,32.184-36,15.928-5.346,35.293-2.129,56.021,9.382,24.82,13.746,49.966,38.73,71.841,71.568a341.461,341.461,0,0,1,20.62,35.129c4.091,7.8,4.091,7.8,4.091,7.038Zm0,0" transform="translate(-131.636 -154.195)" fill="#0f75bc"/></svg>